<svg xmlns="http://www.w3.org/2000/svg" viewBox="0 0 600 660" fill="none" stroke="#A0461E" stroke-width="3" stroke-linecap="round" stroke-linejoin="round"><path d="M270 600 C282 470 276 390 262 330 M330 600 C318 470 326 390 340 330"/><path d="M272 580 Q300 570 328 580" stroke-width="2"/><path d="M272 552 Q300 542 328 552" stroke-width="2"/><path d="M273 524 Q300 514 327 524" stroke-width="2"/><path d="M273 496 Q300 486 327 496" stroke-width="2"/><path d="M274 468 Q300 458 326 468" stroke-width="2"/><path d="M274 440 Q300 430 326 440" stroke-width="2"/><path d="M274 412 Q300 402 326 412" stroke-width="2"/><path d="M275 384 Q300 374 325 384" stroke-width="2"/><path d="M270 600 Q230 615 200 640 M330 600 Q370 615 400 640 M300 600 V645"/><g transform="translate(421 230) rotate(90)"><path d="M0 0 C18 -22 46 -22 64 0 C46 22 18 22 0 0Z"/><path d="M6 0H58" stroke-width="1.6"/><circle cx="18" cy="0" r="2.4" fill="#A0461E" stroke="none"/><circle cx="32" cy="0" r="2.4" fill="#A0461E" stroke="none"/><circle cx="46" cy="0" r="2.4" fill="#A0461E" stroke="none"/></g><g transform="translate(458 262) rotate(106)"><path d="M0 0 C18 -22 46 -22 64 0 C46 22 18 22 0 0Z"/><path d="M6 0H58" stroke-width="1.6"/><circle cx="18" cy="0" r="2.4" fill="#A0461E" stroke="none"/><circle cx="32" cy="0" r="2.4" fill="#A0461E" stroke="none"/><circle cx="46" cy="0" r="2.4" fill="#A0461E" stroke="none"/></g><g transform="translate(476 307) rotate(123)"><path d="M0 0 C18 -22 46 -22 64 0 C46 22 18 22 0 0Z"/><path d="M6 0H58" stroke-width="1.6"/><circle cx="18" cy="0" r="2.4" fill="#A0461E" stroke="none"/><circle cx="32" cy="0" r="2.4" fill="#A0461E" stroke="none"/><circle cx="46" cy="0" r="2.4" fill="#A0461E" stroke="none"/></g><g transform="translate(379 292) rotate(139)"><path d="M0 0 C18 -22 46 -22 64 0 C46 22 18 22 0 0Z"/><path d="M6 0H58" stroke-width="1.6"/><circle cx="18" cy="0" r="2.4" fill="#A0461E" stroke="none"/><circle cx="32" cy="0" r="2.4" fill="#A0461E" stroke="none"/><circle cx="46" cy="0" r="2.4" fill="#A0461E" stroke="none"/></g><g transform="translate(369 332) rotate(155)"><path d="M0 0 C18 -22 46 -22 64 0 C46 22 18 22 0 0Z"/><path d="M6 0H58" stroke-width="1.6"/><circle cx="18" cy="0" r="2.4" fill="#A0461E" stroke="none"/><circle cx="32" cy="0" r="2.4" fill="#A0461E" stroke="none"/><circle cx="46" cy="0" r="2.4" fill="#A0461E" stroke="none"/></g><g transform="translate(330 371) rotate(172)"><path d="M0 0 C18 -22 46 -22 64 0 C46 22 18 22 0 0Z"/><path d="M6 0H58" stroke-width="1.6"/><circle cx="18" cy="0" r="2.4" fill="#A0461E" stroke="none"/><circle cx="32" cy="0" r="2.4" fill="#A0461E" stroke="none"/><circle cx="46" cy="0" r="2.4" fill="#A0461E" stroke="none"/></g><g transform="translate(283 312) rotate(188)"><path d="M0 0 C18 -22 46 -22 64 0 C46 22 18 22 0 0Z"/><path d="M6 0H58" stroke-width="1.6"/><circle cx="18" cy="0" r="2.4" fill="#A0461E" stroke="none"/><circle cx="32" cy="0" r="2.4" fill="#A0461E" stroke="none"/><circle cx="46" cy="0" r="2.4" fill="#A0461E" stroke="none"/></g><g transform="translate(231 332) rotate(205)"><path d="M0 0 C18 -22 46 -22 64 0 C46 22 18 22 0 0Z"/><path d="M6 0H58" stroke-width="1.6"/><circle cx="18" cy="0" r="2.4" fill="#A0461E" stroke="none"/><circle cx="32" cy="0" r="2.4" fill="#A0461E" stroke="none"/><circle cx="46" cy="0" r="2.4" fill="#A0461E" stroke="none"/></g><g transform="translate(163 338) rotate(221)"><path d="M0 0 C18 -22 46 -22 64 0 C46 22 18 22 0 0Z"/><path d="M6 0H58" stroke-width="1.6"/><circle cx="18" cy="0" r="2.4" fill="#A0461E" stroke="none"/><circle cx="32" cy="0" r="2.4" fill="#A0461E" stroke="none"/><circle cx="46" cy="0" r="2.4" fill="#A0461E" stroke="none"/></g><g transform="translate(198 275) rotate(237)"><path d="M0 0 C18 -22 46 -22 64 0 C46 22 18 22 0 0Z"/><path d="M6 0H58" stroke-width="1.6"/><circle cx="18" cy="0" r="2.4" fill="#A0461E" stroke="none"/><circle cx="32" cy="0" r="2.4" fill="#A0461E" stroke="none"/><circle cx="46" cy="0" r="2.4" fill="#A0461E" stroke="none"/></g><g transform="translate(142 262) rotate(254)"><path d="M0 0 C18 -22 46 -22 64 0 C46 22 18 22 0 0Z"/><path d="M6 0H58" stroke-width="1.6"/><circle cx="18" cy="0" r="2.4" fill="#A0461E" stroke="none"/><circle cx="32" cy="0" r="2.4" fill="#A0461E" stroke="none"/><circle cx="46" cy="0" r="2.4" fill="#A0461E" stroke="none"/></g><g transform="translate(91 230) rotate(270)"><path d="M0 0 C18 -22 46 -22 64 0 C46 22 18 22 0 0Z"/><path d="M6 0H58" stroke-width="1.6"/><circle cx="18" cy="0" r="2.4" fill="#A0461E" stroke="none"/><circle cx="32" cy="0" r="2.4" fill="#A0461E" stroke="none"/><circle cx="46" cy="0" r="2.4" fill="#A0461E" stroke="none"/></g><g transform="translate(184 207) rotate(286)"><path d="M0 0 C18 -22 46 -22 64 0 C46 22 18 22 0 0Z"/><path d="M6 0H58" stroke-width="1.6"/><circle cx="18" cy="0" r="2.4" fill="#A0461E" stroke="none"/><circle cx="32" cy="0" r="2.4" fill="#A0461E" stroke="none"/><circle cx="46" cy="0" r="2.4" fill="#A0461E" stroke="none"/></g><g transform="translate(161 169) rotate(303)"><path d="M0 0 C18 -22 46 -22 64 0 C46 22 18 22 0 0Z"/><path d="M6 0H58" stroke-width="1.6"/><circle cx="18" cy="0" r="2.4" fill="#A0461E" stroke="none"/><circle cx="32" cy="0" r="2.4" fill="#A0461E" stroke="none"/><circle cx="46" cy="0" r="2.4" fill="#A0461E" stroke="none"/></g><g transform="translate(163 122) rotate(319)"><path d="M0 0 C18 -22 46 -22 64 0 C46 22 18 22 0 0Z"/><path d="M6 0H58" stroke-width="1.6"/><circle cx="18" cy="0" r="2.4" fill="#A0461E" stroke="none"/><circle cx="32" cy="0" r="2.4" fill="#A0461E" stroke="none"/><circle cx="46" cy="0" r="2.4" fill="#A0461E" stroke="none"/></g><g transform="translate(250 155) rotate(335)"><path d="M0 0 C18 -22 46 -22 64 0 C46 22 18 22 0 0Z"/><path d="M6 0H58" stroke-width="1.6"/><circle cx="18" cy="0" r="2.4" fill="#A0461E" stroke="none"/><circle cx="32" cy="0" r="2.4" fill="#A0461E" stroke="none"/><circle cx="46" cy="0" r="2.4" fill="#A0461E" stroke="none"/></g><g transform="translate(277 119) rotate(352)"><path d="M0 0 C18 -22 46 -22 64 0 C46 22 18 22 0 0Z"/><path d="M6 0H58" stroke-width="1.6"/><circle cx="18" cy="0" r="2.4" fill="#A0461E" stroke="none"/><circle cx="32" cy="0" r="2.4" fill="#A0461E" stroke="none"/><circle cx="46" cy="0" r="2.4" fill="#A0461E" stroke="none"/></g><g transform="translate(330 89) rotate(368)"><path d="M0 0 C18 -22 46 -22 64 0 C46 22 18 22 0 0Z"/><path d="M6 0H58" stroke-width="1.6"/><circle cx="18" cy="0" r="2.4" fill="#A0461E" stroke="none"/><circle cx="32" cy="0" r="2.4" fill="#A0461E" stroke="none"/><circle cx="46" cy="0" r="2.4" fill="#A0461E" stroke="none"/></g><g transform="translate(350 155) rotate(385)"><path d="M0 0 C18 -22 46 -22 64 0 C46 22 18 22 0 0Z"/><path d="M6 0H58" stroke-width="1.6"/><circle cx="18" cy="0" r="2.4" fill="#A0461E" stroke="none"/><circle cx="32" cy="0" r="2.4" fill="#A0461E" stroke="none"/><circle cx="46" cy="0" r="2.4" fill="#A0461E" stroke="none"/></g><g transform="translate(408 145) rotate(401)"><path d="M0 0 C18 -22 46 -22 64 0 C46 22 18 22 0 0Z"/><path d="M6 0H58" stroke-width="1.6"/><circle cx="18" cy="0" r="2.4" fill="#A0461E" stroke="none"/><circle cx="32" cy="0" r="2.4" fill="#A0461E" stroke="none"/><circle cx="46" cy="0" r="2.4" fill="#A0461E" stroke="none"/></g><g transform="translate(476 153) rotate(417)"><path d="M0 0 C18 -22 46 -22 64 0 C46 22 18 22 0 0Z"/><path d="M6 0H58" stroke-width="1.6"/><circle cx="18" cy="0" r="2.4" fill="#A0461E" stroke="none"/><circle cx="32" cy="0" r="2.4" fill="#A0461E" stroke="none"/><circle cx="46" cy="0" r="2.4" fill="#A0461E" stroke="none"/></g><g transform="translate(416 207) rotate(434)"><path d="M0 0 C18 -22 46 -22 64 0 C46 22 18 22 0 0Z"/><path d="M6 0H58" stroke-width="1.6"/><circle cx="18" cy="0" r="2.4" fill="#A0461E" stroke="none"/><circle cx="32" cy="0" r="2.4" fill="#A0461E" stroke="none"/><circle cx="46" cy="0" r="2.4" fill="#A0461E" stroke="none"/></g></svg>
